<svg xmlns="http://www.w3.org/2000/svg" width="500" height="500" viewBox="0 0 500 500">
  <path fill="#FFFFFF4F" d="M338,366.7l-0.1,0.5l-0.1,0.5c0,0.3,0,0.6-0.1,0.9l0.9,1c0.1-0.5,0.1-1,0.2-1.4l0.1-0.7v-0.1l0.1-0.5l0.4-2.1l-1-0.2 L338,366.7z M344,367.8l-0.1,0.7c0,0.2-0.1,0.3-0.1,0.5l-0.3,1.8c-0.3,1.2-0.4,2.4-0.6,3.6l0.9,1c0.2-1.4,0.3-2.8,0.6-4.1l0.4-2.1 c0-0.2,0.1-0.3,0.1-0.5l0.1-0.7l0.4-2.1l-1-0.2L344,367.8z M349.9,369l-0.2,0.9c-0.1,0.3-0.1,0.5-0.2,0.8l-0.5,3.2 c-0.4,2-0.6,4.2-1,6.3l0.9,1l0.5-3.4c0.1-1.1,0.3-2.3,0.5-3.4l0.6-3.4c0-0.3,0.1-0.6,0.2-0.9l0.2-0.9l0.4-2l-1-0.2L349.9,369z M355.6,370.2l-0.2,1.1c-0.1,0.4-0.1,0.8-0.2,1.1l-0.8,4.6l-0.4,2.3l-0.3,2.3l-0.5,4.5l0.9,1l0.6-4.8l0.3-2.4l0.4-2.4l0.8-4.8 c0.1-0.4,0.1-0.8,0.2-1.2l0.2-1.1l0.4-1.9l-1-0.2L355.6,370.2z M361.7,371.4l-0.3,1.3c-0.1,0.5-0.2,1-0.3,1.5l-0.9,6 c-0.3,2-0.6,4-0.9,6l-0.8,5.8l0.9,1l0.8-6.2c0.3-2.1,0.6-4.1,0.9-6.2l1-6.2c0.1-0.5,0.2-1,0.3-1.5l0.3-1.3l0.4-1.9l-1-0.2 L361.7,371.4z M367.5,372.5l-0.3,1.5c-0.1,0.6-0.2,1.2-0.3,1.8l-1.1,7.4c-0.8,4.9-1.4,9.8-2,14.7l0.9,1c0.7-5.1,1.3-10.1,2.1-15.2 l1.1-7.6c0.1-0.6,0.2-1.3,0.3-1.9l0.3-1.5l0.4-1.8l-1-0.2L367.5,372.5z M407.7,61.9L407.7,61.9C407.7,61.9,407.7,61.9,407.7,61.9z M407.8,62c0,0-0.1,0-0.1-0.1L407.8,62l0.5,0.5c0.4,0.2,0.7,0.4,1,0.7l1.8-0.4c-0.5-0.5-1.1-0.8-1.5-1.2l-0.8-0.6l-0.1-0.1 l-0.5-0.5l-2.2-1.9l-0.9,1l2.2,1.9L407.8,62z M413.6,55.8c0.2,0.1,0.3,0.3,0.5,0.5l1.9,1.6c1.2,1.2,2.5,2.2,3.8,3.2l1.8-0.4 c-1.5-1.2-3.1-2.3-4.4-3.6l-2.2-1.9c-0.2-0.1-0.3-0.3-0.5-0.5l-0.8-0.6l-2.2-1.9l-0.9,1l2.2,1.9L413.6,55.8z M419.3,50 c0.3,0.3,0.5,0.5,0.8,0.8l3.4,2.8c2.1,1.9,4.5,3.6,6.7,5.6l1.8-0.4l-3.6-3c-1.2-0.9-2.5-2-3.6-3l-3.6-3.1 c-0.4-0.2-0.6-0.5-0.9-0.9l-0.9-0.9l-2.1-1.9l-0.9,1l2.1,1.9L419.3,50z M434.7,50.8l-2.5-2.2l-5.1-4.3c-0.4-0.4-0.9-0.7-1.3-1.1 l-1.2-1l-2-1.8l-0.9,1l2,1.8l1.2,1c0.4,0.4,0.9,0.7,1.2,1l4.8,4.2l2.4,2.1l2.5,2l4.9,3.7l1.8-0.4l-5.2-4.1L434.7,50.8z M453.2,54.8l-6.7-5.3c-2.3-1.8-4.4-3.6-6.7-5.4l-6.6-5.5c-0.5-0.5-1-0.9-1.6-1.4l-1.3-1.3l-2-1.8l-0.9,1l2,1.8l1.3,1.3 c0.5,0.5,1,0.9,1.6,1.4l6.4,5.3c2.1,1.8,4.3,3.5,6.4,5.3l6.3,5L453.2,54.8z M436.4,32.3c0.6,0.5,1.3,1.1,1.9,1.6l7.9,6.5 c5.2,4.4,10.5,8.5,15.9,12.7l1.8-0.4c-5.5-4.4-11-8.6-16.4-13.1l-8.2-6.6c-0.6-0.5-1.4-1.1-2-1.7l-1.6-1.4l-1.8-1.7l-0.9,1 l1.8,1.7L436.4,32.3z M266.1,382.2C266.1,382.3,266,382.3,266.1,382.2L266.1,382.2z M266.2,382.1l0.7-0.5c0.3-0.4,0.7-0.8,1.1-1.1 l-0.1-2.3c-0.7,0.5-1.2,1.2-1.8,1.6l-0.9,0.8l-0.2,0.3c-0.1,0.1,0.1-0.1,0.1-0.1l-0.7,0.5l-2.8,2.3l1.1,1.3l2.8-2.3L266.2,382.1 C266.2,382.1,266.2,382.2,266.2,382.1L266.2,382.1z M258.9,374.7l0.9-0.8c0.2-0.3,0.5-0.3,0.7-0.5l2.3-2c1.7-1.2,3.1-2.7,4.7-4 l-0.1-2.3c-1.8,1.6-3.4,3.3-5.2,4.7l-2.8,2.3c-0.2,0.3-0.5,0.3-0.7,0.5l-0.9,0.8l-2.8,2.3l1.1,1.3L258.9,374.7z M267.2,354.3 l-0.1-2.3l-4.3,3.9c-1.3,1.3-2.9,2.7-4.3,3.9l-4.5,3.8c-0.3,0.4-0.8,0.7-1.2,1l-1.2,1l-2.7,2.2l1.1,1.3l2.7-2.2l1.2-1 c0.5-0.3,0.7-0.5,1.1-0.8l4.1-3.6C261.7,359.2,264.4,356.6,267.2,354.3z M247.9,357.8c0.6-0.4,1-0.9,1.5-1.2l6-5.1l3-2.6l2.9-2.7 l5.5-5.3l-0.1-2.3l-6,5.6l-3,2.8l-3.1,2.7l-6.2,5.4c-0.6,0.4-1,0.9-1.6,1.3l-1.5,1.2l-2.6,2l1.1,1.3l2.6-2L247.9,357.8z M251.3,341.1c2.6-2.3,5.1-4.5,7.7-6.8l7.3-6.7l-0.1-2.3l-7.8,7.2c-2.7,2.4-5.2,4.7-7.9,7.1l-8,7c-0.7,0.5-1.3,1.1-2,1.6l-1.8,1.4 l-2.6,2l1.1,1.3l2.6-2l1.8-1.4c0.7-0.5,1.3-1.1,2-1.6L251.3,341.1z M247.3,331.1c6.4-5.5,12.4-11.2,18.5-16.9l-0.1-2.3 c-6.4,5.9-12.6,11.7-19.2,17.4l-9.7,8.7c-0.8,0.7-1.7,1.5-2.5,2.1l-2,1.6l-2.5,1.9l1.1,1.3l2.5-1.9l2-1.6c0.8-0.7,1.6-1.3,2.3-2 L247.3,331.1z M265.5,137.8L265.5,137.8C265.6,137.8,265.6,137.8,265.5,137.8l0.4,0.4l1.3,1.4l0.7-0.6l-1.3-1.4l-0.3-0.3l0.1,0.1 c0.1,0,0,0-0.1-0.1l-0.3-0.3c-0.2-0.2-0.4-0.3-0.6-0.5l-1.2,0.1c0.3,0.3,0.7,0.6,0.9,0.9L265.5,137.8z M265.7,137.9 C265.7,137.9,265.7,137.9,265.7,137.9L265.7,137.9z M259.9,139.8l1.3,1.4c0.1,0.1,0.2,0.2,0.3,0.3l0.5,0.4l1.3,1.4l0.7-0.6 l-1.3-1.4l-0.5-0.4c-0.1-0.1-0.2-0.2-0.3-0.3l-1.2-1.2c-0.7-0.9-1.5-1.6-2.3-2.3l-1.2,0.1C258.1,138.1,259.1,138.9,259.9,139.8z M254.7,142.1l2.2,2.2c0.2,0.2,0.4,0.4,0.5,0.6l0.5,0.6l1.2,1.3l0.7-0.6l-1.2-1.3l-0.5-0.6c-0.2-0.2-0.3-0.3-0.5-0.6l-2.1-2 c-1.2-1.3-2.7-2.6-4.1-4l-1.2,0.1l2.2,2.2C253.3,140.6,254,141.4,254.7,142.1z M248,143l1.5,1.6l3.1,3.1c0.2,0.3,0.5,0.5,0.8,0.8 l0.7,0.7l1.2,1.3l0.7-0.6l-1.2-1.3l-0.7-0.7c-0.2-0.3-0.5-0.5-0.7-0.7l-2.9-3l-1.5-1.5l-1.5-1.4l-3-2.7l-1.2,0.1l3.2,3L248,143z M244.3,147l4,4c0.3,0.3,0.6,0.7,0.9,1l0.8,0.9l1.2,1.3l0.7-0.6l-1.2-1.3l-0.8-0.9c-0.3-0.3-0.6-0.7-0.9-1l-3.9-3.8 c-1.3-1.3-2.6-2.5-3.9-3.8l-3.8-3.6l-1.2,0.1l4.1,3.8C241.6,144.4,242.9,145.7,244.3,147z M244,154.3c0.4,0.4,0.8,0.8,1.2,1.2 l0.9,1l1.1,1.2l0.7-0.6l-1.1-1.2l-0.9-1c-0.4-0.4-0.8-0.8-1.2-1.2l-4.8-4.7c-3.1-3.2-6.4-6.2-9.6-9.2l-1.2,0.1 c3.3,3.2,6.7,6.3,10,9.5L244,154.3z M336,275.7l1.6,0.4v-31.4H336V275.7z M330,274.4l1.6,0.4v-30.1H330V274.4z M324,273l1.6,0.4 v-28.7H324V273z M318,271.7l1.6,0.4v-27.4H318V271.7z M312,270.3l1.6,0.4v-26H312V270.3z M306,269l1.6,0.3v-24.6H306V269z M58.8,185.4l-28.5,12.1l0.3,1.6l28.9-12.3L58.8,185.4z M56.5,179.8l-27.3,11.6l0.3,1.6l27.7-11.8L56.5,179.8z M54.1,174.3 l-26,11.1l0.3,1.6l26.4-11.2L54.1,174.3z M51.8,168.8l-24.8,10.6l0.3,1.6l25.2-10.7L51.8,168.8z M49.4,163.3l-23.5,10l0.3,1.6 l23.9-10.2L49.4,163.3z M47.1,157.7l-22.3,9.5l0.4,1.6l22.6-9.6L47.1,157.7z M480.8,463.4l-28.5,12.1l0.3,1.6l28.9-12.3 L480.8,463.4z M478.5,457.8l-27.3,11.6l0.3,1.6l27.7-11.8L478.5,457.8z M476.1,452.3l-26,11.1l0.3,1.6l26.4-11.2L476.1,452.3z M473.8,446.8l-24.8,10.6l0.3,1.6l25.2-10.7L473.8,446.8z M471.4,441.3l-23.5,10l0.3,1.6l23.9-10.2L471.4,441.3z M469.1,435.7 l-22.3,9.5l0.4,1.6l22.6-9.6L469.1,435.7z M371.8,191.7c-2.7-2-5.4-4.1-8-6.4c-2.6-2.3-5.2-4.7-7.6-7.4l-2.9,2.7 c2.6,2.8,5.3,5.3,8,7.7c2.7,2.3,5.5,4.5,8.2,6.6c5.6,4.1,11.2,7.7,16.9,11c11.3,6.7,22.8,12.3,34.4,17.5l1.6-3.7 c-11.5-5.1-22.9-10.7-34.1-17.2C382.7,199.2,377.2,195.7,371.8,191.7z M375.3,186.9c-2.6-1.9-5.1-3.9-7.6-6.1 c-2.5-2.2-4.9-4.5-7.2-6.9l-2.9,2.7c2.4,2.6,4.9,5,7.5,7.2c2.6,2.2,5.2,4.3,7.9,6.3c5.3,3.9,10.8,7.4,16.3,10.7 c11.2,6.5,22.5,12,33.9,17.1l1.6-3.7c-11.3-5.1-22.6-10.5-33.5-16.9C385.9,194.1,380.5,190.7,375.3,186.9z M378.9,182 c-2.5-1.8-4.9-3.8-7.2-5.8c-2.3-2-4.6-4.2-6.7-6.5l-2.9,2.7c2.2,2.4,4.6,4.6,7,6.8c2.4,2.1,4.9,4.1,7.5,6 c5.1,3.8,10.4,7.1,15.8,10.3c10.8,6.4,22,11.9,33.3,16.9l1.6-3.7c-11.2-5-22.3-10.4-32.9-16.6C389.1,189,383.9,185.7,378.9,182z M382.5,177.2c-2.4-1.7-4.7-3.6-6.9-5.5c-2.2-1.9-4.3-3.9-6.2-6l-2.9,2.7c2,2.2,4.2,4.3,6.5,6.3c2.3,2,4.7,3.9,7.1,5.7 c4.9,3.6,10,6.9,15.3,10c10.6,6.2,21.6,11.5,32.7,16.5l1.6-3.7c-11.1-4.9-22-10.2-32.3-16.3C392.2,183.9,387.2,180.7,382.5,177.2z M386.1,172.3c-2.3-1.7-4.4-3.4-6.5-5.2c-2-1.8-4-3.6-5.7-5.5l-2.9,2.7c1.9,2,3.9,3.9,6,5.8c2.2,1.8,4.4,3.7,6.7,5.4 c4.7,3.4,9.6,6.6,14.8,9.6c10.2,6.2,21,11.4,32.1,16.3l1.6-3.7c-10.9-4.9-21.6-10.1-31.7-16C395.5,178.8,390.6,175.7,386.1,172.3z M389.6,167.6c-2.2-1.6-4.2-3.2-6.1-4.9c-1.9-1.7-3.6-3.3-5.2-5l-2.9,2.7c1.7,1.8,3.6,3.6,5.5,5.3c2,1.7,4.1,3.4,6.4,5.1 c4.4,3.3,9.3,6.4,14.2,9.3c10,5.8,20.6,11,31.5,15.9l1.6-3.7c-10.8-4.8-21.3-9.9-31.1-15.7C398.6,173.7,393.9,170.7,389.6,167.6z M77.3,442.7c1.2-1.7,2.5-3.4,4-5c1.4-1.6,2.9-3.2,4.6-4.7l-1.7-1.8c-1.7,1.6-3.3,3.3-4.8,5c-1.4,1.7-2.8,3.4-4.1,5.1 c-2.5,3.5-4.8,7-6.8,10.5c-4.1,7-7.6,14.2-10.8,21.4l2.3,1c3.2-7.1,6.6-14.2,10.6-21.2C72.6,449.4,74.8,446,77.3,442.7z M80.3,444.8c1.2-1.6,2.4-3.2,3.8-4.7c1.4-1.6,2.8-3,4.3-4.5l-1.7-1.8c-1.6,1.5-3.1,3-4.5,4.7s-2.7,3.2-3.9,4.9 c-2.4,3.3-4.6,6.7-6.6,10.1c-4,7-7.4,14-10.6,21.1l2.3,1c3.2-7,6.5-14.1,10.4-20.8C75.8,451.4,77.9,448.1,80.3,444.8z M83.3,447.1 c1.1-1.6,2.4-3,3.6-4.5c1.2-1.4,2.6-2.9,4-4.2l-1.7-1.8c-1.5,1.4-2.8,2.9-4.2,4.4c-1.3,1.5-2.5,3-3.7,4.7 c-2.4,3.2-4.4,6.5-6.4,9.8c-4,6.7-7.4,13.7-10.4,20.7l2.3,1c3.1-7,6.4-13.9,10.3-20.5C79,453.4,81,450.2,83.3,447.1z M86.3,449.3 c1.1-1.5,2.2-2.9,3.4-4.3c1.2-1.4,2.4-2.7,3.7-3.9l-1.7-1.8c-1.4,1.2-2.7,2.6-3.9,4c-1.2,1.4-2.4,2.9-3.5,4.4 c-2.2,3-4.3,6.2-6.2,9.5c-3.8,6.6-7.1,13.4-10.2,20.3l2.3,1c3-6.9,6.3-13.7,10.1-20.1C82.2,455.3,84.1,452.2,86.3,449.3z M89.3,451.5c1.1-1.4,2.1-2.7,3.2-4c1.1-1.2,2.2-2.5,3.4-3.5l-1.7-1.8c-1.2,1.2-2.4,2.4-3.6,3.7c-1.1,1.4-2.3,2.7-3.3,4.2 c-2.1,2.9-4.1,6-5.9,9.2c-3.8,6.3-7,13.1-10.1,20l2.3,1c3-6.8,6.2-13.4,9.9-19.7C85.3,457.4,87.2,454.3,89.3,451.5z M93.4,448.3 c-1.1,1.2-2.1,2.6-3.2,4c-2,2.7-4,5.8-5.8,8.8c-3.6,6.2-6.8,12.8-9.8,19.6l2.3,1c3-6.7,6.1-13.2,9.7-19.3c1.8-3,3.7-6,5.6-8.6 c1-1.4,2-2.6,3-3.8c1.1-1.2,2-2.2,3.1-3.2l-1.7-1.8C95.6,445.9,94.5,447.1,93.4,448.3z M49.4,315.2l2.3-2.2l-0.6-0.6l-2.2,2.2 l-2.4,2.2l-2.3,2.2l-2.5,2.2l0.6,0.6l2.4-2.1l2.4-2.2L49.4,315.2z M53.6,319.6l2.4-2.4l-0.6-0.6L53,319l-2.4,2.2l-2.4,2.3 l-2.5,2.2l0.6,0.6l2.5-2.2l2.4-2.3L53.6,319.6z M57.9,323.9l2.4-2.4l-0.6-0.6l-2.4,2.4l-2.5,2.3l-2.5,2.3l-2.6,2.3l0.6,0.6 l2.6-2.3l2.5-2.3C56.2,325.4,57.1,324.7,57.9,323.9z M62,328.2l2.5-2.5l-0.6-0.6l-2.5,2.4c-0.8,0.8-1.7,1.6-2.5,2.4l-2.5,2.4 l-2.7,2.4l0.6,0.6l2.6-2.3l2.6-2.4C60.3,329.7,61.2,328.9,62,328.2z M60.9,337.3l2.6-2.4c0.9-0.8,1.8-1.6,2.6-2.5l2.6-2.5 l-0.6-0.6l-2.5,2.5c-0.9,0.8-1.7,1.6-2.6,2.4l-2.6,2.4l-2.8,2.5l0.6,0.6L60.9,337.3z M64.3,341.2l-2.7,2.4l0.6,0.6l2.7-2.4 l2.7-2.5c0.9-0.8,1.8-1.7,2.7-2.5l2.6-2.6l-0.6-0.6l-2.6,2.6c-0.9,0.8-1.8,1.7-2.7,2.5L64.3,341.2z M327.1,18.5l2.3-2.3l2.3-2.2 l-0.6-0.6l-2.2,2.2l-2.4,2.2l-2.3,2.2l-2.5,2.2l0.6,0.6l2.4-2.1L327.1,18.5z M333.6,20.6l2.4-2.4l-0.6-0.6L333,20l-2.4,2.2 l-2.4,2.3l-2.5,2.2l0.6,0.6l2.5-2.2l2.4-2.3L333.6,20.6z M337.9,24.9l2.4-2.4l-0.6-0.6l-2.4,2.4l-2.5,2.3l-2.5,2.3l-2.6,2.3 l0.6,0.6l2.6-2.3l2.5-2.3C336.2,26.4,337.1,25.7,337.9,24.9z M339.5,31.5c0.8-0.8,1.7-1.6,2.5-2.4l2.5-2.5l-0.6-0.6l-2.5,2.4 c-0.8,0.8-1.7,1.6-2.5,2.4l-2.5,2.4l-2.7,2.4l0.6,0.6l2.6-2.3L339.5,31.5z M346.1,33.4l2.6-2.5l-0.6-0.6l-2.5,2.5 c-0.9,0.8-1.7,1.6-2.6,2.4l-2.6,2.4l-2.8,2.5l0.6,0.6l2.7-2.4l2.6-2.4C344.4,35.1,345.3,34.3,346.1,33.4z M349.7,37.2 c-0.9,0.8-1.8,1.7-2.7,2.5l-2.7,2.5l-2.7,2.4l0.6,0.6l2.7-2.4l2.7-2.5c0.9-0.8,1.8-1.7,2.7-2.5l2.6-2.6l-0.6-0.6L349.7,37.2z M264.3,459.4l-2-1.6l-2-1.7l-0.4,0.5l1.9,1.6l2,1.6l2,1.5l2,1.6l0.4-0.5l-1.9-1.5L264.3,459.4z M261.3,463.1l-2-1.6l-2-1.7 l-0.4,0.5l2,1.7l2,1.6l2,1.6l2.1,1.6l0.4-0.5l-2.1-1.6L261.3,463.1z M258.3,466.8l-2.1-1.7l-2.1-1.8l-0.4,0.5l2.1,1.8l2.1,1.7 c0.7,0.5,1.3,1.2,2.1,1.7l2.1,1.6l0.4-0.5l-2.1-1.6L258.3,466.8z M255.4,470.5l-2.1-1.7l-2.2-1.9l-0.4,0.5l2.1,1.8l2.1,1.8 c0.7,0.5,1.4,1.2,2.1,1.7l2.2,1.7l0.4-0.5l-2.1-1.7C256.8,471.6,256.1,471,255.4,470.5z M252.4,474.1l-2.1-1.8l-2.2-1.9l-0.4,0.5 l2.2,1.8l2.1,1.8c0.7,0.6,1.4,1.2,2.2,1.8l2.2,1.8l0.4-0.5l-2.2-1.7C253.8,475.3,253.1,474.8,252.4,474.1z M249.3,477.7l-2.2-1.8 l-2.2-1.8l-0.4,0.5l2.2,1.8l2.2,1.8c0.7,0.6,1.5,1.2,2.2,1.8l2.3,1.8l0.4-0.5l-2.3-1.8C250.8,478.9,250,478.3,249.3,477.7z M131.9,29.5c5.5,7.2,11.1,14.4,16.4,21.8l1.3-1c-5.3-7.4-10.9-14.6-16.4-21.8L131.9,29.5z M127.2,33.2c5.5,7.2,11,14.3,16.3,21.7 l1.3-1c-5.3-7.4-10.8-14.5-16.3-21.7L127.2,33.2z M122.4,36.8c5.4,7.2,11,14.3,16.2,21.6l1.3-1c-5.2-7.3-10.7-14.4-16.2-21.6 L122.4,36.8z M117.7,40.5c5.4,7.1,10.9,14.2,16.1,21.4l1.3-1c-5.2-7.2-10.7-14.3-16.1-21.4L117.7,40.5z M112.9,44.2 c5.4,7.1,10.8,14.1,16,21.3l1.3-1c-5.1-7.2-10.6-14.2-16-21.3L112.9,44.2z M108.2,47.8c5.3,7,10.8,14,15.9,21.2l1.3-1 c-5.1-7.1-10.6-14.1-15.9-21.2L108.2,47.8z M179.5,223.8l-1.9,0.8c1.5,3.7,3.8,7.6,6.3,11.4c2.6,3.9,5.5,7.8,8.6,11.7l1.6-1.3 c-3.1-3.8-5.9-7.7-8.5-11.5C183.2,231.1,181,227.3,179.5,223.8z M174,226.1l-1.9,0.8c1.7,4.2,4.2,8.3,6.9,12.4 c2.7,4.1,5.7,8.1,8.9,12.1l1.6-1.3c-3.1-3.9-6.1-7.9-8.8-11.9C178.1,234.2,175.7,230.1,174,226.1z M168.5,228.5l-1.9,0.8 c2,4.7,4.6,9.1,7.4,13.4s6,8.4,9.2,12.5l1.6-1.3c-3.2-4-6.3-8.1-9.1-12.4C172.9,237.3,170.4,232.9,168.5,228.5z M163,230.8 l-1.9,0.8c2.2,5.2,5,9.9,7.9,14.4c3,4.5,6.2,8.8,9.5,12.9l1.6-1.3c-3.3-4.1-6.4-8.4-9.4-12.8C167.8,240.4,165.1,235.8,163,230.8z M157.4,233.1l-1.9,0.8c2.4,5.7,5.3,10.6,8.4,15.4c3.1,4.7,6.4,9.1,9.8,13.4l1.6-1.3c-3.4-4.2-6.6-8.6-9.7-13.2 C162.6,243.5,159.7,238.6,157.4,233.1z M151.9,235.4l-1.9,0.8c2.6,6.2,5.7,11.4,9,16.3c3.2,4.9,6.7,9.4,10.1,13.8l1.6-1.3 c-3.4-4.3-6.8-8.8-10-13.6C157.5,246.6,154.4,241.4,151.9,235.4z M455.1,341.6l0,1c2.3,0.1,4.6,0.3,6.8,0.6 c2.1,0.3,4.2,0.8,5.9,1.3l0.3-0.9c-1.8-0.6-3.9-1.1-6-1.4C459.8,341.9,457.5,341.7,455.1,341.6z M469,340.9 c-2-0.7-4.3-1.1-6.6-1.5c-2.3-0.3-4.7-0.5-7.1-0.7l0,1c2.4,0.1,4.7,0.3,7,0.6c2.2,0.3,4.5,0.8,6.4,1.4L469,340.9z M469.9,338.2 c-2.3-0.8-4.7-1.2-7.1-1.6c-2.4-0.4-4.9-0.5-7.4-0.7l0,1c2.4,0.1,4.9,0.3,7.3,0.7c2.4,0.3,4.7,0.8,6.9,1.6L469.9,338.2z M470.8,335.5c-2.5-0.9-5.1-1.4-7.6-1.7c-2.5-0.4-5.1-0.6-7.6-0.7l0,1c2.5,0.1,5,0.4,7.5,0.7c2.5,0.4,5,0.9,7.4,1.7L470.8,335.5z M471.7,332.8c-2.8-1-5.4-1.5-8.1-1.9c-2.7-0.4-5.3-0.6-7.9-0.8l0,1c2.6,0.1,5.1,0.4,7.8,0.7c2.6,0.4,5.3,0.9,8,1.9L471.7,332.8z M455.9,328.4c2.6,0.2,5.3,0.4,8,0.7c2.7,0.4,5.5,0.9,8.5,1.9l0.3-0.9c-3-1-5.9-1.6-8.6-2c-2.8-0.4-5.5-0.6-8.1-0.8L455.9,328.4z"/>
</svg>